<svg xmlns="http://www.w3.org/2000/svg" viewBox="0 0 100 100"><path d="M0 76 Q30 40 60 56 Q80 66 100 40 V100 H0Z" fill="#3FAE5A" stroke="#14213D" stroke-width="2.5" stroke-linejoin="round" stroke-linecap="round"/><path d="M0 68 Q30 32 60 48 Q80 58 100 32 L100 42 Q80 68 60 58 Q30 42 0 78 Z" fill="#C9A36B" stroke="#14213D" stroke-width="2.5" stroke-linejoin="round" stroke-linecap="round"/><path d="M4 64 v-6 h5 v4 M16 54 v-6 h5 v4 M28 46 v-6 h5 v4 M44 42 v-6 h5 v4 M60 46 v-6 h5 v4 M76 46 v-6 h5 v4 M90 36 v-6 h5 v4" fill="none" stroke="#14213D" stroke-width="2.5" stroke-linejoin="round" stroke-linecap="round"/><rect x="38" y="26" width="16" height="18" fill="#C9A36B" stroke="#14213D" stroke-width="2.5" stroke-linejoin="round" stroke-linecap="round"/><path d="M36 26 h20 v-5 h-4 v3 h-4 v-3 h-4 v3 h-4 v-3 h-4z" fill="#C9A36B" stroke="#14213D" stroke-width="2.5" stroke-linejoin="round" stroke-linecap="round"/><rect x="43" y="34" width="6" height="10" fill="#14213D"/></svg>
