<svg xmlns="http://www.w3.org/2000/svg" viewBox="0 0 100 100"><path d="M26 30 Q22 18 34 16 Q40 6 52 12 Q66 8 68 22 Q78 24 74 32 Z" fill="#E8EEF7" stroke="#14213D" stroke-width="2.5" stroke-linejoin="round" stroke-linecap="round"/><path d="M34 40 L32 46 M48 40 L46 46 M62 40 L60 46" stroke="#2F80ED" stroke-width="3" stroke-linecap="round"/><path d="M0 70 Q30 50 60 62 Q80 52 100 60 V100 H0Z" fill="#3FAE5A" stroke="#14213D" stroke-width="2.5" stroke-linejoin="round" stroke-linecap="round"/><path d="M6 76 Q30 64 56 72 M8 86 Q34 74 62 82 M60 70 Q80 62 98 68 M64 82 Q82 74 98 78" stroke="#2C7A47" stroke-width="3" fill="none" stroke-linecap="round"/><path d="M80 60 L86 40 L92 60Z" fill="#2C7A47" stroke="#14213D" stroke-width="2.5" stroke-linejoin="round" stroke-linecap="round"/></svg>
