<svg xmlns="http://www.w3.org/2000/svg" viewBox="0 0 100 100"><path d="M6 30 Q50 18 94 30 V40 Q50 32 6 40 Z" fill="#ffffff" stroke="#14213D" stroke-width="2.5" stroke-linejoin="round" stroke-linecap="round"/><path d="M14 34 Q50 26 86 34 Q50 30 14 36Z" fill="#5BD0E8"/><path d="M4 50 Q50 38 96 50 V62 Q50 52 4 62 Z" fill="#ffffff" stroke="#14213D" stroke-width="2.5" stroke-linejoin="round" stroke-linecap="round"/><path d="M12 54 Q50 44 88 54 Q50 49 12 57Z" fill="#5BD0E8"/><path d="M2 72 Q50 60 98 72 V88 Q50 78 2 88 Z" fill="#ffffff" stroke="#14213D" stroke-width="2.5" stroke-linejoin="round" stroke-linecap="round"/><path d="M10 76 Q50 66 90 76 Q50 71 10 79Z" fill="#5BD0E8"/><path d="M20 40 V48 M40 36 V46 M62 36 V46 M80 40 V48 M30 62 V70 M70 62 V70" stroke="#cfe8f0" stroke-width="3"/></svg>
